<svg xmlns="http://www.w3.org/2000/svg" viewBox="0 0 640 640">
  <g fill="none" stroke="#ffffff" stroke-width="48" stroke-linecap="round" stroke-linejoin="round">
    <circle cx="320" cy="184" r="104"/>
    <circle cx="96" cy="224" r="72"/>
    <circle cx="544" cy="224" r="72"/>

    <path d="M160 496C160 407.6 231.6 336 320 336C408.4 336 480 407.6 480 496V512C480 529.7 465.7 544 448 544H192C174.3 544 160 529.7 160 512V496Z"/>

    <path d="M32 544C14.3 544 0 529.7 0 512V480C0 409.3 57.3 352 128 352C140.8 352 153.2 353.9 164.9 357.4"/>

    <path d="M475.1 357.4C486.8 353.9 499.2 352 512 352C582.7 352 640 409.3 640 480V512C640 529.7 625.7 544 608 544H521.3"/>
  </g>
</svg>