<svg version="1.2" xmlns="http://www.w3.org/2000/svg" viewBox="0 0 1080 1080" width="1080" height="1080">
	<style>
		.s0 { fill: #ffffff } 
	</style>
	<path id="Path 0" class="s0" d="m238.03 34.36c-2.46 2.28-11.15 10.66-19.33 18.64-8.18 7.98-15.69 15.85-16.69 17.5-1 1.65-2.33 5.92-2.94 9.5-0.61 3.58-1.88 12.8-2.82 20.5-1.38 11.27-1.71 22.49-1.7 57.5 0 29.61 0.42 46.69 1.3 53.5 0.71 5.5 3.91 19.45 7.11 31 3.21 11.55 6.68 23.25 7.72 26 1.05 2.75 4.63 8.6 7.97 13 3.34 4.4 8.16 9.91 10.71 12.25 2.55 2.34 5.19 4.25 5.86 4.25 0.67 0 10.12-8.89 20.99-19.75 12.41-12.4 19.78-20.49 19.79-21.75 0-1.1-2.02-4.7-4.51-8-2.49-3.3-4.77-7.13-5.08-8.5-0.31-1.38-0.95-3.4-1.42-4.5-0.48-1.1-1.21-3.13-1.63-4.5-0.42-1.38-0.82-2.72-0.89-3-0.07-0.28-0.47-1.85-0.89-3.5-0.41-1.65-1-3.68-1.32-4.5-0.31-0.82-0.63-1.95-0.72-2.5-0.08-0.55-0.49-2.35-0.9-4-0.42-1.65-1.13-3.68-1.58-4.5-0.45-0.82-1.15-4.65-1.56-8.5-0.41-3.85-1.08-7.45-1.5-8-0.42-0.55-1.04-3.93-1.39-7.5-0.34-3.57-0.81-10.32-1.05-15-0.23-4.68-0.71-11.43-1.07-15-0.35-3.57-0.38-7.51-0.06-8.75 0.31-1.24 1.02-2.25 1.57-2.25 0.55 0 7.6 8.89 15.66 19.75 8.07 10.86 17.83 24.03 21.69 29.25 3.86 5.22 12.28 15.8 18.7 23.5 6.43 7.7 19.33 22.1 28.67 32 9.34 9.9 18.74 20.2 20.88 22.89 2.15 2.69 7.5 8.64 11.9 13.23 4.4 4.58 8.56 8.35 9.25 8.36 0.69 0.01 4.06-2.33 7.5-5.21 3.44-2.87 11.95-10.86 18.91-17.75 10-9.89 13.24-13.78 15.4-18.52 1.51-3.3 2.8-6.45 2.87-7 0.07-0.55 0.4-1.45 0.73-2 0.34-0.55 0.97-3.47 1.41-6.5 0.43-3.03 0.85-5.95 0.92-6.5 0.07-0.55 0.4-1.68 0.75-2.5 0.34-0.82 0.91-4.2 1.28-7.5 0.36-3.3 0.73-8.1 0.82-10.66 0.09-2.57 0.51-5.04 0.94-5.5 0.43-0.46 0.76-4.33 0.75-8.59-0.02-4.82 0.41-8.03 1.13-8.5 0.8-0.51 0.97-2.79 0.54-7.25-0.34-3.57-0.22-6.95 0.27-7.5 0.49-0.55 1.15-7.3 1.47-15 0.32-7.7 0.81-20.75 1.09-29 0.33-9.7 0.14-15.35-0.53-16-0.57-0.55-1.03-4.26-1.02-8.25 0.01-3.99-0.43-7.47-0.98-7.75-0.55-0.28-0.92-1.29-0.82-2.25 0.1-0.96-0.15-3.78-0.55-6.25-0.41-2.47-1.13-5.4-1.61-6.5-0.47-1.1-1.2-3.35-1.61-5-0.41-1.65-0.82-3.22-0.91-3.5-0.1-0.28-0.52-1.4-0.95-2.5-0.43-1.1-2.24-5.15-4.03-9-1.82-3.91-5.64-9.6-8.64-12.88-2.96-3.24-6.51-6.34-7.88-6.89-1.38-0.54-3.63-1.09-5-1.2-2.02-0.18-6.06 3.32-21.23 18.38-10.3 10.22-18.96 19.38-19.25 20.34-0.32 1.09 0.74 3.16 2.84 5.5 1.84 2.06 3.93 4.88 4.64 6.25 0.71 1.38 1.84 4.75 2.52 7.5 0.67 2.75 1.99 8.6 2.93 13 0.94 4.4 2.15 10.03 2.69 12.5 0.55 2.47 1.37 8.55 1.83 13.5 0.46 4.95 0.44 16.2-0.05 25-0.48 8.8-1.34 20.39-1.9 25.75-0.56 5.36-1.47 9.97-2.02 10.25-0.55 0.28-1.56 0.26-2.25-0.04-0.69-0.3-2.7-2.44-4.48-4.75-1.78-2.32-5.7-6.91-8.72-10.21-3.02-3.3-5.5-6.34-5.52-6.75-0.02-0.41-2.28-3.22-5.03-6.25-2.75-3.03-5.01-5.84-5.02-6.25 0-0.41-1.24-2.17-2.75-3.9-1.5-1.73-3.41-4.15-4.23-5.39-0.82-1.23-2.63-3.62-4-5.3-1.38-1.68-4.61-6.01-7.19-9.61-2.58-3.6-5.38-7.23-6.22-8.05-0.84-0.82-1.55-1.84-1.56-2.25-0.02-0.41-1.27-2.44-2.78-4.5-1.51-2.06-3.08-4.2-3.49-4.75-0.4-0.55-2.31-3.14-4.25-5.75-1.93-2.61-3.52-5.09-3.54-5.5-0.02-0.41-1.52-2.55-3.34-4.75-1.81-2.2-4.52-6.03-6.01-8.5-1.49-2.47-3.25-5.4-3.91-6.5-0.67-1.1-1.46-2.22-1.76-2.5-0.3-0.28-2.05-2.97-3.88-6-1.83-3.03-3.64-5.72-4.01-6-0.38-0.28-2.41-3.42-4.53-7-2.11-3.58-4.64-7.4-5.62-8.5-0.99-1.1-1.82-2.34-1.85-2.75-0.03-0.41-0.34-1.54-0.68-2.5-0.35-0.96-0.08-2.65 0.59-3.75 0.98-1.6 0.93-2.59-0.24-5-0.81-1.65-3.66-4.93-6.35-7.28-2.68-2.36-5.22-4.27-5.63-4.25-0.41 0.01-0.75-0.64-0.75-1.47 0-0.82-0.45-1.5-1-1.5-0.55 0-1 0.45-1 1 0 0.55-1.01 1.5-2.25 2.1-1.24 0.61-3.26 0.83-4.5 0.5-1.24-0.33-2.25-1.27-2.25-2.1 0-0.82-0.34-1.45-0.75-1.39-0.41 0.05-2.76 1.97-5.22 4.25zm282.51 373.64c-2.22 1.88-3.26 3.46-2.79 4.24 0.45 0.75 0.35 0.95-0.25 0.51-0.56-0.4-8.14 6.49-17.06 15.51-13.98 14.14-16.04 16.63-15.91 19.24 0.09 1.65 0.45 3.56 0.81 4.25 0.36 0.69 1.22 0.95 1.91 0.59 0.69-0.36 0.92-0.25 0.53 0.25-0.4 0.5-0.29 1.7 0.25 2.66 0.57 1.04 1.48 1.45 2.22 1.01q1.24-0.73 0.5 0.5c-0.46 0.77 1.63 4.24 5.5 9.13 3.44 4.35 8.27 10.63 10.75 13.98 2.48 3.34 4.91 5.75 5.41 5.35 0.5-0.4 0.61-0.16 0.25 0.53-0.38 0.72 1.56 3.94 4.59 7.61 2.89 3.49 7.27 9.11 9.75 12.47 2.48 3.36 4.84 5.9 5.25 5.64 0.41-0.26 0.54-0.13 0.28 0.28-0.26 0.41-0.04 1.54 0.5 2.5 0.53 0.96 1.42 1.52 1.97 1.25 0.55-0.27 0.93-0.16 0.84 0.25-0.09 0.41 0.14 1.54 0.5 2.5 0.36 0.96 1 1.57 1.41 1.34 0.41-0.22 0.85 0.79 0.97 2.25 0.17 2-1.06 4.03-4.94 8.16-2.84 3.02-18.02 18.71-33.72 34.86-15.71 16.15-28.89 29.88-29.29 30.5-0.4 0.63-6.58 7.1-13.75 14.39-7.16 7.29-12.79 13.7-12.52 14.25 0.27 0.55-0.29 1.56-1.25 2.25-1.6 1.14-1.62 1.1-0.25-0.54 0.82-0.99 1.27-1.8 1-1.79-0.27 0-3.4 3.51-6.94 7.79-3.54 4.29-6.46 8.38-6.5 9.11-0.03 0.73-1.52 2.42-3.31 3.75-1.79 1.34-3.27 3.22-3.29 4.18-0.03 0.96 0.73 2.42 1.69 3.25 1.54 1.33 1.63 1.33 0.8 0-0.67-1.09-0.59-1.29 0.31-0.75 0.68 0.41 1.04 1.09 0.79 1.5-0.24 0.41 1.33 2.66 3.5 5 2.17 2.34 4.4 4.02 4.95 3.75 0.55-0.27 0.89 0 0.75 0.61-0.14 0.61 1.32 1.97 3.25 3.03 2.4 1.32 4.44 1.72 6.5 1.28 2.4-0.52 2.7-0.84 1.5-1.63-1.23-0.8-1.18-0.87 0.25-0.38 0.96 0.32 3.1 0.14 4.75-0.41q2.99-1 2.25-2.24-0.74-1.23 0.5-0.5c0.75 0.45 3.13-0.78 6-3.09 2.61-2.1 10.82-10.26 18.25-18.12 7.43-7.86 13.39-14.69 13.25-15.17-0.14-0.49 0.31-0.77 1-0.63 0.73 0.15 1.39-1.01 1.58-2.75 0.2-1.83-0.31-3.58-1.3-4.5-0.89-0.83-1.6-2.4-1.59-3.5 0.02-1.16 5.56-7.89 13.17-16 7.22-7.7 21.74-22.67 32.26-33.26l19.13-19.25c48.05 47.33 62.23 60.84 62.5 60.55 0.27-0.29 1.06-0.08 1.75 0.47 0.69 0.54 1.02 1.44 0.75 1.99-0.27 0.55 2.22 3.36 5.53 6.25 3.32 2.89 7.15 6.94 8.5 9 1.36 2.06 2.81 3.57 3.22 3.35 0.41-0.23 0.79 0.11 0.84 0.75 0.06 0.63 1.9 4.07 4.1 7.65 2.2 3.58 4.3 7.51 4.66 8.75 0.42 1.45 1.1 1.99 1.9 1.51q1.24-0.73 0.5 0.5c-0.43 0.72 0.41 2.98 2 5.36 1.51 2.26 5.11 6.09 8 8.5 2.89 2.41 6.15 4.38 7.25 4.38 1.29 0 8.65-6.87 20.62-19.25 10.24-10.59 19.24-20.49 20-22 0.76-1.51 1.15-3.65 0.88-4.75-0.27-1.1-0.84-2-1.25-2-0.41 0-0.85-1.01-0.96-2.25-0.12-1.24-0.91-2.81-1.75-3.5-0.85-0.69-1.54-1.48-1.54-1.75 0-0.27 0-0.95 0-1.5 0-0.55-0.56-0.7-1.25-0.34-0.69 0.36-0.92 0.25-0.53-0.25 0.4-0.5 0.29-1.7-0.25-2.66-0.58-1.04-1.47-1.45-2.21-1-0.74 0.45-0.95 0.35-0.53-0.25 0.39-0.55-0.43-2.58-1.83-4.5-1.4-1.92-2.96-3.39-3.47-3.25-0.51 0.14-0.7-0.2-0.43-0.75 0.27-0.55-2.2-3.48-5.5-6.5-3.3-3.02-5.99-5.84-5.99-6.25 0.01-0.41-2.47-3.23-5.51-6.25-3.04-3.02-5.52-5.16-5.51-4.75 0 0.41-13.6-13.01-30.24-29.84-16.64-16.82-32.37-32.91-34.97-35.75-2.6-2.84-4.73-5.61-4.75-6.16-0.01-0.55 2.66-2.8 5.94-5 3.28-2.2 5.86-4.45 5.74-5-0.11-0.55 0.46-0.87 1.29-0.72 0.83 0.15 2.4-0.58 3.5-1.63 1.1-1.04 3.01-2.41 4.25-3.03 1.4-0.7 1.97-1.59 1.51-2.37q-0.73-1.24 0.5-0.5c0.72 0.44 2.08-0.09 3.24-1.25 1.1-1.1 2.24-1.66 2.53-1.25 0.29 0.41 0.51 0.19 0.5-0.5-0.02-0.69 0.53-0.99 1.22-0.68 0.69 0.32 1.92-0.08 2.75-0.87 1.29-1.25 2.07-1.26 5.5-0.09 2.2 0.75 4.11 1.37 4.25 1.37 0.14 0.01 0.02-0.43-0.25-0.98-0.27-0.55 0.06-0.74 0.75-0.42 0.69 0.31 4.06-1.94 7.5-5 4.03-3.6 5.99-6.02 5.51-6.83q-0.73-1.24 0.5-0.5c0.81 0.49 5.46-3.74 13.49-12.3 6.74-7.17 11.91-13.02 11.5-13-0.41 0.03 0.15-0.85 1.25-1.95 1.36-1.36 1.8-2.73 1.39-4.25-0.34-1.24-1.58-3.32-2.75-4.63-1.18-1.31-4.28-4.13-6.89-6.25-2.88-2.35-5.24-3.58-5.99-3.12q-1.23 0.74-0.5-0.5c0.44-0.73 0.12-1.46-0.76-1.75-0.83-0.27-2.85-0.5-4.5-0.5-1.65 0-6.04 1.55-9.75 3.45-3.71 1.89-7.99 4.26-9.51 5.25-1.52 0.99-2.42 2.21-2 2.71 0.42 0.5 0.31 0.64-0.24 0.3-0.55-0.33-3.48 1.06-6.52 3.09-3.03 2.04-8.31 5.95-11.73 8.7-3.41 2.75-6.11 5.45-5.98 6 0.13 0.55-0.33 0.89-1.02 0.75-0.69-0.14-8.47 6.84-17.29 15.5l-16.03 15.75c-2.53-3.87-5.33-7.01-7.85-9.47-2.52-2.46-3.71-3.81-2.64-3 1.49 1.13 1.38 0.72-0.5-1.74-1.34-1.77-2.78-3.01-3.19-2.75-0.41 0.25-0.64 0.08-0.5-0.39 0.14-0.46-2.71-4.63-6.32-9.25-3.62-4.62-7.1-9.41-7.75-10.65-0.65-1.24-1.63-2.02-2.18-1.75-0.55 0.27-0.95 0.16-0.88-0.25 0.06-0.41 0.06-1.31 0-2-0.07-0.69-0.68-0.95-1.37-0.59-0.69 0.36-0.93 0.25-0.53-0.25 0.39-0.5-0.17-2.6-1.25-4.66-1.09-2.06-2.42-3.75-2.97-3.75-0.56 0-0.68-0.76-0.27-1.75 0.52-1.24 0.37-1.53-0.5-1-0.78 0.47-1.03 0.29-0.69-0.5 0.29-0.7-3.02-4.67-7.5-9-4.42-4.26-8.49-7.52-9.04-7.25-0.55 0.27-1 0.05-1-0.5 0-0.55-0.88-1-1.96-1-1.08 0-3.56 1.35-5.5 3zm167.83 378.34c-1.58 1.81-4.11 4.05-5.62 4.97-1.73 1.07-2.48 2.15-2.01 2.94 0.44 0.74 0.34 0.96-0.25 0.53-0.54-0.4-7.56 5.9-15.6 14-8.03 8.1-15.55 16.52-16.71 18.72-1.16 2.2-1.79 4.35-1.4 4.78 0.4 0.43 0.16 0.76-0.53 0.75-0.69-0.02-1.02 0.64-0.75 1.47 0.27 0.83 0.05 1.28-0.5 1-0.55-0.27-1.26 0.51-1.58 1.75-0.33 1.24-0.25 3.6 0.17 5.25 0.45 1.79 0.39 2.73-0.17 2.33-0.51-0.38-1.25 1.63-1.66 4.5-0.41 2.84-0.75 13.72-0.75 24.17-0.01 10.45 0.26 23.95 0.6 30 0.4 7.16 0.93 10.48 1.51 9.5 0.55-0.93 0.65 0.6 0.26 4-0.35 3.03-0.32 7.75 0.06 10.5 0.5 3.57 0.96 4.57 1.59 3.5 0.53-0.9 0.6 0.8 0.18 4.26-0.45 3.65-0.34 5.76 0.29 5.76 0.55-0.01 0.83 1.45 0.63 3.24-0.21 1.78-0.1 4.48 0.25 5.99q0.62 2.75 1.85 2c0.87-0.53 1.02-0.24 0.5 1-0.4 0.96-0.41 4.79-0.01 8.5 0.39 3.71 1.18 7.2 1.75 7.75 0.56 0.55 1.15 2.8 1.29 5 0.14 2.2 1.33 7.6 2.64 12 1.31 4.4 2.66 9.24 2.99 10.75 0.34 1.51 0.95 2.57 1.36 2.35 0.41-0.23 0.83 0.79 0.93 2.25 0.1 1.46 0.44 3.66 0.75 4.9 0.31 1.24 1.02 2.03 1.57 1.75 0.55-0.27 0.77 0.17 0.5 1-0.27 0.83-0.05 1.5 0.5 1.5 0.55 0 0.77 0.45 0.5 1-0.27 0.55-0.27 1.9 0 3 0.32 1.27 0.95 1.73 1.74 1.25q1.23-0.74 0.5 0.5c-0.41 0.69-0.14 2.71 0.6 4.5 0.74 1.79 1.63 4.83 1.97 6.75 0.41 2.34 2.57 5.65 6.5 10 3.24 3.58 7.65 7.77 9.79 9.31 3.2 2.31 4.53 2.7 7.4 2.16 1.92-0.36 2.98-0.95 2.35-1.31-0.64-0.36 0.26-0.69 2-0.72 1.73-0.04 4.39-0.38 5.9-0.75 1.79-0.45 2.49-1.11 2-1.87-0.54-0.85-0.11-0.99 1.5-0.5 1.24 0.37 2.48 0.23 2.75-0.32 0.27-0.55 1.29-0.73 2.25-0.4 0.96 0.32 2.54-0.13 3.5-1 0.96-0.88 1.86-1.36 2-1.06 0.14 0.3 2.16 0.07 4.5-0.5 2.34-0.57 4.25-1.49 4.25-2.04 0-0.55 0.56-0.93 1.25-0.84 0.69 0.08 2.46 0.08 3.93 0 1.47-0.09 3.38-0.83 4.25-1.66 0.86-0.83 1.68-1.26 1.82-0.98 0.14 0.29 1.6 0.24 3.25-0.11 2.35-0.5 2.68-0.83 1.5-1.55-1.05-0.65-0.68-0.76 1.25-0.39 1.52 0.29 2.75 0.08 2.75-0.47 0-0.55 0.56-0.93 1.25-0.84 0.69 0.08 2.04 0.08 3 0 0.96-0.09 1.52-0.61 1.25-1.16-0.27-0.55 0.17-0.78 1-0.5 0.83 0.28 2.06 0.18 2.75-0.21 0.69-0.4 1.92-0.77 2.75-0.83 0.83-0.07 2.29-0.19 3.25-0.29 0.96-0.09 1.57-0.51 1.35-0.92-0.22-0.41 1.24-0.84 3.25-0.95 2.01-0.11 4.66-0.45 5.9-0.75 1.24-0.3 2.02-1 1.75-1.55-0.32-0.64 0.6-0.73 2.52-0.25 1.85 0.46 3.02 0.36 3.01-0.25 0-0.55 1.22-0.84 2.73-0.64 1.53 0.2 3.4-0.29 4.24-1.13 0.99-0.98 2.53-1.29 4.5-0.91 1.79 0.34 2.74 0.19 2.35-0.37-0.38-0.56 1.39-0.95 4.29-0.95 2.96 0 5.22-0.51 5.65-1.28 0.42-0.76 1.51-1.01 2.71-0.62 1.1 0.36 3.58 0.35 5.5-0.04 1.95-0.39 2.99-1 2.34-1.38-0.64-0.37 6.56-0.55 16-0.39l17.16 0.3c28.86-29.13 37.74-38.6 38.37-39.84 0.99-1.98 0.67-2.73-2.62-6.18-2.06-2.17-5.21-5.77-7-8-1.79-2.24-3.7-3.84-4.25-3.57-0.55 0.28-1 0.05-1-0.5 0-0.62-5.67-1-15-1-11.24 0-14.81 0.29-14.25 1.17 0.55 0.87-0.17 0.98-2.75 0.42-1.92-0.41-4.74-0.49-6.25-0.17-1.51 0.32-2.52 1.03-2.25 1.58 0.32 0.64-0.6 0.73-2.52 0.25-2.16-0.53-3.02-0.39-3 0.5 0.01 0.73-0.71 1.03-1.73 0.71-0.96-0.29-2.99-0.29-4.5 0-1.51 0.3-2.52 0.99-2.25 1.54 0.27 0.55-0.51 0.92-1.75 0.82-1.24-0.1-3.71-0.1-5.5 0-1.79 0.1-3.81 0.78-4.5 1.52-0.72 0.76-2.31 1.1-3.75 0.8-1.46-0.31-2.23-0.14-1.86 0.41 0.37 0.55-0.48 0.8-2 0.59-1.49-0.2-3.4 0.34-4.39 1.25-0.96 0.88-1.86 1.35-2 1.03-0.14-0.31-2.61-0.09-5.5 0.5-2.89 0.6-5.25 1.53-5.25 2.08 0 0.55-0.45 0.78-1 0.5-0.55-0.27-2.13-0.27-3.5 0q-2.48 0.5-1.75 1.73 0.77 1.25-0.75 0.57c-0.83-0.37-3.19-0.25-5.25 0.27-2.06 0.51-3.75 1.27-3.75 1.68 0 0.41-1.35 0.86-3 1-1.65 0.14-4.46 1-6.25 1.92-1.79 0.92-4.15 1.79-5.25 1.92-1.1 0.14-4.48 0.98-7.5 1.86-3.02 0.88-5.73 1.93-6 2.33-0.27 0.4-3.54 0.83-7.25 0.97-4.25 0.16-6.56-0.12-6.25-0.75 0.27-0.55 0.05-1-0.5-1-0.55 0-0.77-0.45-0.5-1 0.27-0.55 0.05-1-0.5-1-0.55 0-0.73-0.79-0.4-1.75 0.32-0.96-0.13-2.54-1-3.5-0.88-0.96-1.36-1.86-1.08-2 0.29-0.14 0.24-1.6-0.11-3.25-0.51-2.4-0.83-2.7-1.62-1.5-0.8 1.23-0.87 1.18-0.38-0.25 0.32-0.96 0.1-4.11-0.5-7-0.82-3.92-1.33-4.87-2.03-3.75-0.67 1.07-0.79 0.71-0.41-1.25 0.29-1.51 0.08-2.97-0.47-3.25-0.55-0.27-0.77-0.95-0.5-1.5 0.27-0.55 0.27-2.35 0-4-0.27-1.65-0.95-2.77-1.5-2.5-0.64 0.32-0.73-0.6-0.25-2.52 0.53-2.16 0.39-3.02-0.5-3-0.77 0.01-1.01-0.66-0.62-1.73 0.35-0.96 0.35-3.21 0-5-0.35-1.79-1.08-3.02-1.63-2.75-0.64 0.32-0.75-1.03-0.3-3.75 0.52-3.18 0.39-4.06-0.5-3.5-0.87 0.54-1.03 0-0.58-2 0.35-1.51 0.31-4.77-0.07-7.25-0.38-2.47-1-3.98-1.37-3.35-0.38 0.63-0.75-2.97-0.84-8-0.09-5.03-0.5-12.52-0.91-16.65-0.47-4.72-0.96-6.64-1.34-5.18-0.32 1.27-0.59-11.4-0.59-28.16 0-18.71 0.36-30.21 0.94-29.81 0.56 0.39 0.7-1.51 0.33-4.85-0.33-3.02-0.24-4.83 0.2-4q0.79 1.51 1.88-4.5c0.59-3.3 2-7.24 3.12-8.75 1.11-1.51 2.01-3.54 1.99-4.5-0.02-0.96-3.05-4.9-6.73-8.75-3.67-3.85-7.42-7.1-8.33-7.22-0.91-0.12-2.94 1.26-4.53 3.06z"/>
</svg>